<svg width="16" height="16" viewBox="0 0 16 16" fill="none" xmlns="http://www.w3.org/2000/svg">
<rect width="16" height="16" rx="8" fill="#444444"/>
<path fill-rule="evenodd" clip-rule="evenodd" d="M6.54167 4.25C6.81793 4.25 7.08288 4.35975 7.27823 4.5551C7.47358 4.75045 7.58333 5.0154 7.58333 5.29167V5.91667H8.41667V5.29167C8.41662 5.0272 8.51718 4.77262 8.69793 4.57956C8.87868 4.38651 9.1261 4.26943 9.39 4.25208L9.48291 4.25C9.74518 4.25008 10.0008 4.33265 10.2135 4.48602C10.4263 4.63939 10.5854 4.85579 10.6683 5.10458L12.0025 9.10667C12.1169 9.36168 12.1728 9.63903 12.1661 9.91844C12.1595 10.1978 12.0905 10.4722 11.9641 10.7215C11.8378 10.9708 11.6573 11.1887 11.4359 11.3593C11.2145 11.5298 10.9578 11.6487 10.6845 11.7073C10.4112 11.7659 10.1283 11.7626 9.85646 11.6977C9.58461 11.6328 9.3307 11.508 9.1133 11.3324C8.89591 11.1567 8.72053 10.9347 8.6 10.6826C8.47947 10.4304 8.41683 10.1545 8.41667 9.875V6.75H7.58333V9.875C7.58317 10.1545 7.52053 10.4304 7.4 10.6826C7.27947 10.9347 7.10409 11.1567 6.88669 11.3324C6.6693 11.508 6.41539 11.6328 6.14354 11.6977C5.87169 11.7626 5.58877 11.7659 5.31549 11.7073C5.04221 11.6487 4.78548 11.5298 4.56408 11.3593C4.34267 11.1887 4.1622 10.9708 4.03585 10.7215C3.90951 10.4722 3.8405 10.1978 3.83386 9.91844C3.82722 9.63903 3.88313 9.36168 3.9975 9.10667L5.33125 5.10458C5.41014 4.8681 5.55795 4.66061 5.75567 4.50877C5.95339 4.35694 6.192 4.26769 6.44083 4.2525L6.54167 4.25ZM5.70833 8.83333C5.14375 8.83333 4.66667 9.31208 4.66667 9.875C4.66667 10.081 4.72776 10.2824 4.84222 10.4537C4.95668 10.625 5.11936 10.7585 5.3097 10.8374C5.50004 10.9162 5.70949 10.9368 5.91155 10.8967C6.11361 10.8565 6.29922 10.7572 6.4449 10.6116C6.59058 10.4659 6.68979 10.2803 6.72998 10.0782C6.77018 9.87616 6.74955 9.66671 6.67071 9.47637C6.59187 9.28603 6.45835 9.12335 6.28705 9.00889C6.11575 8.89443 5.91435 8.83333 5.70833 8.83333ZM10.2917 8.83333C10.0856 8.83333 9.88425 8.89443 9.71295 9.00889C9.54164 9.12335 9.40813 9.28603 9.32929 9.47637C9.25045 9.66671 9.22982 9.87616 9.27001 10.0782C9.31021 10.2803 9.40942 10.4659 9.5551 10.6116C9.70078 10.7572 9.88638 10.8565 10.0884 10.8967C10.2905 10.9368 10.5 10.9162 10.6903 10.8374C10.8806 10.7585 11.0433 10.625 11.1578 10.4537C11.2722 10.2824 11.3333 10.081 11.3333 9.875C11.3333 9.31208 10.8562 8.83333 10.2917 8.83333Z" fill="#CBBDAB"/>
</svg>
