<svg width="16" height="16" viewBox="0 0 16 16" fill="none" xmlns="http://www.w3.org/2000/svg">
<rect width="16" height="16" rx="8" fill="#444444"/>
<path fill-rule="evenodd" clip-rule="evenodd" d="M4.25 4.66683C4.25 4.44582 4.3378 4.23385 4.49408 4.07757C4.65036 3.92129 4.86232 3.8335 5.08333 3.8335H5.91667C6.06833 3.8335 6.21083 3.87391 6.33333 3.94516C6.46001 3.87202 6.60372 3.8335 6.75 3.8335H7.58333C7.88625 3.8335 8.15167 3.99516 8.2975 4.23725C8.385 4.16725 8.4875 4.11391 8.6025 4.08308L9.4075 3.86766C9.51321 3.83931 9.62348 3.83205 9.732 3.84631C9.84052 3.86058 9.94516 3.89608 10.04 3.95079C10.1348 4.0055 10.2178 4.07835 10.2845 4.16518C10.3511 4.252 10.4 4.35111 10.4283 4.45683L12.1533 10.8964C12.1817 11.0021 12.1889 11.1124 12.1747 11.2209C12.1604 11.3294 12.1249 11.4341 12.0702 11.5289C12.0155 11.6237 11.9426 11.7068 11.8558 11.7734C11.769 11.84 11.6699 11.8889 11.5642 11.9172L10.7592 12.1327C10.6535 12.161 10.5432 12.1683 10.4347 12.154C10.3262 12.1397 10.2215 12.1042 10.1267 12.0495C10.0319 11.9948 9.94882 11.922 9.88218 11.8351C9.81555 11.7483 9.76667 11.6492 9.73833 11.5435L8.41667 6.60975V11.3335C8.41667 11.5545 8.32887 11.7665 8.17259 11.9228C8.01631 12.079 7.80435 12.1668 7.58333 12.1668H6.75C6.60372 12.1668 6.46001 12.1283 6.33333 12.0552C6.20665 12.1283 6.06295 12.1668 5.91667 12.1668H5.08333C4.86232 12.1668 4.65036 12.079 4.49408 11.9228C4.3378 11.7665 4.25 11.5545 4.25 11.3335V4.66683ZM5.08333 4.66683H5.91667V11.3335H5.08333V4.66683ZM7.58333 11.3335H6.75V4.66683H7.58333V11.3335ZM8.81833 4.88808L9.62292 4.67266L11.3488 11.1122L10.5437 11.3277L8.81833 4.88808Z" fill="#CBBDAB"/>
</svg>
